<?xml version="1.0" standalone="no"?>
<!DOCTYPE svg PUBLIC "-//W3C//DTD SVG 20010904//EN"
 "http://www.w3.org/TR/2001/REC-SVG-20010904/DTD/svg10.dtd">
<svg version="1.0" xmlns="http://www.w3.org/2000/svg"
 width="300.000000pt" height="300.000000pt" viewBox="0 0 300.000000 300.000000"
 preserveAspectRatio="xMidYMid meet">
<metadata>
Created by potrace 1.11, written by Peter Selinger 2001-2013
</metadata>
<g transform="translate(0.000000,300.000000) scale(0.100000,-0.100000)"
fill="#000000" stroke="none">
<path d="M1395 2742 c-2 -2 -23 -5 -47 -8 -155 -13 -396 -96 -494 -171 -17
-12 -35 -23 -41 -23 -5 0 -18 -8 -29 -17 -10 -10 -35 -30 -55 -45 -55 -41
-149 -135 -201 -202 -27 -34 -51 -65 -56 -71 -44 -56 -121 -213 -154 -311
l-20 -62 -149 2 -149 1 0 -336 0 -336 146 0 c80 0 149 -4 154 -9 5 -5 11 -18
13 -29 2 -11 9 -33 15 -48 7 -16 12 -31 12 -34 0 -3 21 -46 46 -96 114 -229
309 -430 529 -545 57 -30 154 -72 165 -72 6 0 18 -4 28 -10 17 -9 138 -40 177
-45 11 -2 43 -6 70 -10 95 -13 233 -8 365 11 104 16 288 82 383 139 32 19 63
35 68 35 5 0 9 4 9 8 0 5 10 14 23 20 67 32 249 213 320 320 62 92 123 215
152 305 11 31 24 57 30 58 5 0 73 1 150 2 l140 2 2 333 c1 304 0 332 -15 333
-9 0 -77 1 -151 2 l-134 2 -22 65 c-27 82 -99 231 -138 285 -44 61 -104 136
-135 169 -199 211 -480 352 -762 383 -59 6 -240 10 -245 5z"/>
</g>
</svg>
